<?xml version="1.0" ?><svg data-name="Layer 1" id="Layer_1" viewBox="0 0 64 64" xmlns="http://www.w3.org/2000/svg"><title/><path d="M44,29a12,12,0,1,0-21,7.919V41l1,4H40l1-4V36.919A11.94,11.94,0,0,0,44,29Z" style="fill:#ff9f1c"/><path d="M24,45H40a0,0,0,0,1,0,0v4a2,2,0,0,1-2,2H26a2,2,0,0,1-2-2V45A0,0,0,0,1,24,45Z" style="fill:#9b9c9b"/><rect height="10" style="fill:#4f5d75" width="12" x="26" y="51"/><circle cx="32" cy="40" r="1"/><path d="M32,16A12.986,12.986,0,0,0,22,37.288V41a.984.984,0,0,0,.03.242L23,45.123V49a3,3,0,0,0,2,2.816V61a1,1,0,0,0,1,1H38a1,1,0,0,0,1-1V51.816A3,3,0,0,0,41,49V45.123l.97-3.881A.984.984,0,0,0,42,41V37.288A12.986,12.986,0,0,0,32,16Zm5,44H27V52H37Zm2-11a1,1,0,0,1-1,1H26a1,1,0,0,1-1-1V46H39Zm1.25-12.742a1,1,0,0,0-.25.661v3.958L39.219,44H24.781L24,40.877V36.919a1,1,0,0,0-.25-.661,11,11,0,1,1,16.5,0Z"/><path d="M36,22H28a1,1,0,0,0-1,1v6a1,1,0,0,0,1,1h4a1,1,0,0,0,1-1V27H31v1H29V24h6v5.586l-3.707,3.707A1,1,0,0,0,31,34v3h2V34.414l3.707-3.707A1,1,0,0,0,37,30V23A1,1,0,0,0,36,22Z"/><rect height="10" width="2" x="31" y="2"/><rect height="2" width="10" x="52" y="35.251"/><rect height="2" width="10" x="2" y="35.251"/><rect height="2" transform="translate(4.951 42.03) rotate(-44.998)" width="9.999" x="48.213" y="14.038"/><rect height="2" transform="translate(-33.939 22.994) rotate(-45)" width="10" x="5.787" y="51.464"/><rect height="10" transform="translate(-21.512 52.991) rotate(-44.998)" width="2" x="52.213" y="47.464"/><rect height="9.999" transform="translate(-7.474 12.033) rotate(-45.002)" width="2" x="9.787" y="10.038"/></svg>